<svg xmlns="http://www.w3.org/2000/svg" width="23.561" height="24.683" viewBox="0 0 23.561 24.683"><defs><style>.a{fill:#c8cacc;}</style></defs><g transform="translate(-29.5 -26.5)"><path class="a" d="M45.725,39.425a9.448,9.448,0,0,0,2.288-6.193,6.732,6.732,0,0,0-13.464,0,9.447,9.447,0,0,0,2.288,6.193c-4.193,1.112-7.337,3.686-7.337,6.149V49.5a1.685,1.685,0,0,0,1.683,1.683h20.2A1.685,1.685,0,0,0,53.061,49.5V45.574C53.061,43.111,49.918,40.536,45.725,39.425Zm-4.444-11.8a5.616,5.616,0,0,1,5.61,5.61c0,3.817-2.674,7.293-5.61,7.293s-5.61-3.476-5.61-7.293A5.616,5.616,0,0,1,41.281,27.622ZM51.939,49.5a.561.561,0,0,1-.561.561h-20.2a.561.561,0,0,1-.561-.561V45.574c0-1.809,2.872-4.289,7.183-5.228a5.291,5.291,0,0,0,6.951,0c4.311.939,7.183,3.42,7.183,5.228Z"/></g></svg>