<svg xmlns="http://www.w3.org/2000/svg" width="19.043" height="24.445" viewBox="0 0 19.043 24.445"><defs><style>.a{fill:#c8cacc;}</style></defs><g transform="translate(-5.018 -3.037)"><g transform="translate(5.018 3.037)"><path class="a" d="M23.606,12.348H19.582V8.05a.191.191,0,0,0-.008-.074,5.011,5.011,0,0,0-10.02-.025.38.38,0,0,0-.012.1v4.3H5.472a.454.454,0,0,0-.454.455V27.026a.455.455,0,0,0,.454.455H23.606a.455.455,0,0,0,.455-.455V12.8A.456.456,0,0,0,23.606,12.348Zm-13.155-4.2a.452.452,0,0,0,.012-.1,4.1,4.1,0,1,1,8.2,0,.209.209,0,0,0,.008.07v4.23H10.454Zm12.7,5.108V26.571H5.929V13.259Z" transform="translate(-5.018 -3.037)"/><path class="a" d="M12.137,18.413a.454.454,0,0,0,.454-.454V14.132a.454.454,0,1,0-.908,0v3.826A.453.453,0,0,0,12.137,18.413Z" transform="translate(-2.594 0.833)"/></g></g></svg>